<?xml version="1.0" standalone="no"?>
<!DOCTYPE svg PUBLIC "-//W3C//DTD SVG 20010904//EN"
 "http://www.w3.org/TR/2001/REC-SVG-20010904/DTD/svg10.dtd">
<svg version="1.0" xmlns="http://www.w3.org/2000/svg"
 width="64.000000pt" height="64.000000pt" viewBox="0 0 64.000000 64.000000"
 preserveAspectRatio="xMidYMid meet">

<g transform="translate(0.000000,64.000000) scale(0.100000,-0.100000)"
fill="#000000" stroke="none">
<path d="M277 634 c-4 -4 -7 -16 -7 -26 0 -15 -8 -18 -60 -18 -33 0 -60 -4
-60 -10 0 -6 72 -10 195 -10 l195 0 40 -51 c23 -29 40 -62 40 -76 0 -28 -61
-117 -86 -127 -9 -3 -120 -6 -248 -6 -282 0 -266 -8 -266 132 0 107 11 128 68
128 18 0 32 5 32 10 0 23 -62 10 -91 -19 -28 -28 -29 -33 -29 -120 0 -81 2
-93 24 -118 23 -27 28 -28 135 -31 l111 -4 0 -94 c0 -68 -3 -94 -12 -96 -7 0
-31 -2 -53 -2 -34 -1 -41 -5 -49 -29 -20 -55 -4 -62 140 -65 164 -4 174 -1
174 42 0 41 -21 60 -57 53 -38 -7 -53 1 -53 29 0 13 -4 24 -10 24 -5 0 -10
-11 -10 -25 0 -30 -24 -43 -45 -25 -11 9 -15 35 -15 101 l0 89 30 0 c30 0 30
-1 30 -55 0 -30 5 -55 10 -55 6 0 10 24 10 54 l0 54 92 4 91 4 38 44 c73 85
73 115 0 200 l-39 45 -89 3 c-80 3 -90 6 -99 25 -9 22 -62 36 -77 21z m63 -29
c0 -10 -10 -15 -30 -15 -20 0 -30 5 -30 15 0 10 10 15 30 15 20 0 30 -5 30
-15z m-118 -534 c12 -20 12 -20 26 0 17 25 38 24 53 -2 l11 -21 14 21 c19 27
44 27 51 1 7 -26 19 -26 26 1 4 13 12 19 23 17 22 -4 39 -31 31 -52 -5 -14
-26 -16 -147 -16 l-140 0 0 28 c0 46 30 58 52 23z"/>
<path d="M62 478 c-15 -15 -15 -61 0 -76 15 -15 65 -16 74 0 5 8 2 9 -11 4
-41 -15 -74 18 -54 56 8 14 18 19 35 15 13 -2 24 0 24 4 0 13 -54 11 -68 -3z"/>
<path d="M180 465 c-6 -14 -14 -36 -20 -50 -6 -16 -6 -25 0 -25 6 0 10 5 10
10 0 14 43 13 58 -2 16 -16 15 -11 -4 45 -18 53 -30 59 -44 22z m30 -31 c0 -8
-7 -14 -15 -14 -17 0 -18 2 -9 24 7 18 24 12 24 -10z"/>
<path d="M261 438 c1 -29 3 -45 6 -35 6 21 12 21 35 0 10 -9 18 -11 18 -5 0 6
-4 14 -10 17 -6 4 -5 13 2 24 16 26 3 51 -27 51 -24 0 -25 -3 -24 -52z m47 25
c6 -19 -25 -16 -32 3 -4 11 -1 14 11 12 9 -2 18 -9 21 -15z"/>
<path d="M350 440 c0 -48 1 -50 28 -49 23 2 24 2 5 6 -25 5 -32 33 -8 33 8 0
15 5 15 10 0 6 -7 10 -15 10 -24 0 -17 28 8 33 19 4 18 4 -5 6 -27 1 -28 -1
-28 -49z"/>
<path d="M430 440 c0 -48 1 -50 28 -49 23 2 24 2 5 6 -28 5 -30 33 -3 33 11 0
20 5 20 10 0 6 -9 10 -20 10 -27 0 -25 28 3 33 19 4 18 4 -5 6 -27 1 -28 -1
-28 -49z"/>
<path d="M511 438 c1 -29 3 -45 6 -35 6 21 12 21 35 0 10 -9 18 -11 18 -5 0 6
-4 14 -10 17 -6 4 -5 13 2 24 16 26 3 51 -27 51 -24 0 -25 -3 -24 -52z m47 25
c6 -19 -25 -16 -32 3 -4 11 -1 14 11 12 9 -2 18 -9 21 -15z"/>
</g>
</svg>
